<svg xmlns="http://www.w3.org/2000/svg" xmlns:xlink="http://www.w3.org/1999/xlink" width="153.093" height="153.093" viewBox="0 0 153.093 153.093">
  <defs>
    <clipPath id="clip-path">
      <circle id="Ellipse_6" data-name="Ellipse 6" cx="63.63" cy="63.63" r="63.63" transform="translate(0 123.855) rotate(-76.718)" fill="none"/>
    </clipPath>
  </defs>
  <g id="Group_18" data-name="Group 18" transform="translate(0 0)" clip-path="url(#clip-path)">
    <g id="Group_17" data-name="Group 17" transform="translate(44.577 36.931)">
      <path id="Path_9" data-name="Path 9" d="M511.013,214.629c-.566-.423-13.245-6.4-13.245-6.4-5.641,1.867-6.906,14.536-7.482,22H503.77Z" transform="translate(-490.285 -126.385)" fill="#9f2025" fill-rule="evenodd"/>
      <path id="Path_10" data-name="Path 10" d="M498.754,214.629c.571-.423,13.245-6.4,13.245-6.4,5.646,1.867,6.911,14.536,7.482,22H506Z" transform="translate(-455.56 -126.385)" fill="#9f2025" fill-rule="evenodd"/>
      <path id="Path_11" data-name="Path 11" d="M505.605,205.51h-5.952v3.759c0,2.331-.388,1.846-2.566,3.06a18.434,18.434,0,0,1-2.744,1.928c2.642,8.517,4.555,19.463,9.726,27.144h3.07c5.167-7.681,7.079-18.626,9.726-27.144a18.18,18.18,0,0,1-2.744-1.928c-2.183-1.214-2.57-.729-2.57-3.06V205.51Z" transform="translate(-473.642 -137.55)" fill="#f5b67e" fill-rule="evenodd"/>
      <path id="Path_12" data-name="Path 12" d="M512.6,215.212c-5.238-1.923-5.9-7.533-4.835-8.359-3.167,1.448-14.735,5.978-16.03,7.1,1.051,2.3,2.642,11.766,4.024,21.942h41.057c1.377-10.175,2.968-19.641,4.024-21.942-1.3-1.122-12.863-5.651-16.035-7.1,1.061.826.408,6.437-4.83,8.359v.005l-3.687,6.156-3.687-6.156Z" transform="translate(-484.327 -132.043)" fill="#841b21" fill-rule="evenodd"/>
      <path id="Path_13" data-name="Path 13" d="M499.793,205.583c-.852,4.432,2.02,8.125,6.416,8.92s8.64-1.607,9.492-6.039a8.027,8.027,0,0,0-6.411-9.471A8.235,8.235,0,0,0,499.793,205.583Z" transform="translate(-451.912 -164.802)" fill="#f6c085" fill-rule="evenodd"/>
      <path id="Path_14" data-name="Path 14" d="M506.568,205.583c.852,4.432-2.015,8.125-6.411,8.92s-8.64-1.607-9.491-6.039a8.027,8.027,0,0,1,6.411-9.471A8.227,8.227,0,0,1,506.568,205.583Z" transform="translate(-489.339 -164.802)" fill="#f6c085" fill-rule="evenodd"/>
      <path id="Path_15" data-name="Path 15" d="M539.948,202.884a24.017,24.017,0,0,0-18.081-9.935l-.367-.015.005-.275-3.5.138-3.5-.138.01.275-.367.015a24.008,24.008,0,0,0-18.08,9.935c-4.294,5.835-4.866,13.184-4.529,20.218.872,18.075,2.489,38.318,26.542,38.522,24.13.2,25.522-20.574,26.389-38.522C544.808,216.068,544.237,208.719,539.948,202.884Z" transform="translate(-485.466 -190.247)" fill="#f8c997" fill-rule="evenodd"/>
      <path id="Path_16" data-name="Path 16" d="M509.228,203.209c-1.255,7.069-12.644,7.069-13.9,0A41.115,41.115,0,0,0,509.228,203.209Z" transform="translate(-469.619 -146.984)" fill="#d6825b" fill-rule="evenodd"/>
      <path id="Path_17" data-name="Path 17" d="M493.626,230.508c.322-6.661.4-18.708,6.238-18.708,4.32,0,5.5.995,18.621.995,11.613,0,14.99-1.326,19.335-1.326,4.656,0,5.809,6.278,5.9,14.979.015,1.8.143,3.591.245,5.381.061,1.051.138,2.1.189,3.147.021.428.133,1.571.684,1.464.622-.122.688-2.428.755-2.922a82.506,82.506,0,0,0,.556-10.527c-.005-6.457,1.857-18.881-9.726-26.624-7.12-4.764-21.84-5.233-30.036-2.54-5.707,1.882-11.18,6.773-13.215,12.47-2.234,6.263-2.178,11.149-1.438,23.548.076,1.341.235,2.688.418,4.024a26.122,26.122,0,0,0,.449,2.662c.469,1.9,1.117.541,1.1-.637C493.667,234.093,493.539,232.313,493.626,230.508Z" transform="translate(-486.226 -192.185)" fill="#59341a" fill-rule="evenodd"/>
      <path id="Path_18" data-name="Path 18" d="M506.723,213.78a17.123,17.123,0,0,1-3.05.321,11.011,11.011,0,0,1-8.655-3.784,7.668,7.668,0,0,1-1.321-3.392c-.117-.918-.617-3.218-.694-4-.449-4.524-1.408-1.26-1.454,2.239a11.488,11.488,0,0,0,.418,2.555,62.888,62.888,0,0,0-.428,6.809c1.015,13.235,18.05,16.708,26.425,17.938,4.085-.6,15.393-3.325,18.035-5.151,6.753-4.677,8.936-9.956,7.957-19.6a11.5,11.5,0,0,0,.418-2.555c-.046-3.5-1-6.763-1.454-2.239-.076.785-.576,3.086-.688,4a7.68,7.68,0,0,1-1.326,3.392,11.011,11.011,0,0,1-8.655,3.784,17.123,17.123,0,0,1-3.05-.321,5.034,5.034,0,0,1,.714,2.555c0,3.361-3.54,6.207-8.416,7.151a4.136,4.136,0,0,1-.959-.484,9.306,9.306,0,0,1-2.448-2.469A9.3,9.3,0,0,1,515.643,223a4.175,4.175,0,0,1-1.056.515c-4.958-.913-8.579-3.784-8.579-7.181A5.085,5.085,0,0,1,506.723,213.78Z" transform="translate(-485.215 -157.234)" fill="#402412" fill-rule="evenodd"/>
      <path id="Path_19" data-name="Path 19" d="M510.68,202.6c-2.723-2.214-9.282,3.33-10.68,3.922a5.6,5.6,0,0,1-6.7-1.77,11.522,11.522,0,0,0,2.519,4.753c3.55,3.994,11.047,2.928,14.862-.5,3.81,3.427,11.307,4.493,14.857.5a11.521,11.521,0,0,0,2.52-4.753,5.6,5.6,0,0,1-6.7,1.77C519.957,205.928,513.4,200.384,510.68,202.6Z" transform="translate(-477.931 -151.621)" fill="#5d331a" fill-rule="evenodd"/>
      <g id="Group_15" data-name="Group 15" transform="translate(16.821 42.53)">
        <path id="Path_20" data-name="Path 20" d="M495.638,204.635a2.055,2.055,0,1,0-2.055-2.055A2.06,2.06,0,0,0,495.638,204.635Z" transform="translate(-493.583 -200.524)" fill="#3e3b3a" fill-rule="evenodd"/>
        <path id="Path_21" data-name="Path 21" d="M501,204.635a2.055,2.055,0,1,0-2.055-2.055A2.059,2.059,0,0,0,501,204.635Z" transform="translate(-471.613 -200.524)" fill="#3e3b3a" fill-rule="evenodd"/>
      </g>
      <g id="Group_16" data-name="Group 16" transform="translate(12.248 36.481)">
        <path id="Path_22" data-name="Path 22" d="M492.771,201.108c-.684-1.127,2.871-1.724,6.488-1.755,6.059-.051,9.349,2.861,6.437,2.78C503.517,202.072,492.97,201.44,492.771,201.108Z" transform="translate(-492.686 -199.277)" fill="#59341a" fill-rule="evenodd"/>
        <path id="Path_23" data-name="Path 23" d="M511.875,201.006c.668-1.137-2.892-1.688-6.508-1.668-6.059.026-9.313,2.979-6.4,2.861C501.144,202.113,511.681,201.338,511.875,201.006Z" transform="translate(-471.37 -199.338)" fill="#59341a" fill-rule="evenodd"/>
      </g>
      <path id="Path_24" data-name="Path 24" d="M496.158,209.872c-.02-.01-.026-.026-.005-.056a.331.331,0,0,1,.138-.245,36.241,36.241,0,0,0,2.7-9.589c.688.046-.683,7.349-1.275,9.094a12.264,12.264,0,0,1,2.116-.168c2.03,0,3.677.408,3.677.908s-1.647.913-3.677.913C497.872,210.729,496.266,210.347,496.158,209.872Z" transform="translate(-466.276 -160.212)" fill="#e5b17d" fill-rule="evenodd"/>
    </g>
  </g>
</svg>
