<svg xmlns="http://www.w3.org/2000/svg" width="153.986" height="131.369" viewBox="0 0 153.986 131.369">
  <defs>
    <style>
      .cls-1 {
        fill: #f2f1f2;
      }

      .cls-2, .cls-5 {
        fill: #6396fc;
      }

      .cls-3 {
        fill: #aec9fd;
      }

      .cls-4 {
        fill: #56637d;
      }

      .cls-5 {
        font-size: 16px;
        font-family: Roboto-Bold, Roboto;
        font-weight: 700;
      }
    </style>
  </defs>
  <g id="Group_2" data-name="Group 2" transform="translate(-124.293 -164.36)">
    <g id="Group_1" data-name="Group 1" transform="translate(124.293 164.36)">
      <path id="Path_1" data-name="Path 1" class="cls-1" d="M147.864,181.463c4.525,38.291,21.851,67.613,51.246,90.048,1.866,1.425,3.119,1.36,5-.039A130.4,130.4,0,0,0,234.693,239a118.776,118.776,0,0,0,20.1-54.707c.648-6.287.7-6.265-5.145-9.233-12.786-6.5-26.535-9.5-40.677-10.428-19.885-1.3-38.994,2.023-56.9,11.179C149.1,177.331,146.638,178.927,147.864,181.463Zm-10.816,40.653c-2.285-5-4.6-9.436-10.532-10.3C126.535,217.386,130.047,222.992,137.048,222.116Zm109.673,38.707a15.541,15.541,0,0,0-6.874,1.768c-.777.352-1.741.184-1.806,1.439-.059,1.129.788,1.629,1.481,2.054,2.872,1.763,5.7.93,8.335-.574,1.139-.649,3.107-1.287,2.776-2.743C250.213,260.925,248.088,261.008,246.721,260.823Zm-121.479-63.24c-.492.265-1.075-.151-.925,1.057.544,4.374,2.307,7.866,6.146,10.118.828.486,2.2,1.018,2.826.66,1.132-.65.04-1.807-.176-2.74a15.331,15.331,0,0,0-3.839-6.536A6.772,6.772,0,0,0,125.242,197.582Zm9.891-11.939c-4.327,4.307-3.926,8.915-2.218,13.647.239.664.32,1.981,1.59,1.747.91-.168.866-1.2,1.119-1.869C137.28,194.783,137.06,190.437,135.133,185.643Zm3.878,49.144c.76-.019,1.6.107,2.143-.555.671-.824-.139-1.458-.521-2.012a17.136,17.136,0,0,0-9.232-7.06c-1.444-.441-2.077.334-2.042,1.276C129.453,228.975,136.24,234.688,139.011,234.787Zm134.323-9.024c-5.063-.447-7.829,2.488-10.327,5.783-.55.725-1.752,1.581-1.051,2.579.72,1.025,2.124.8,3.212.474C269.484,233.317,271.644,230.008,273.334,225.764Zm4.944-28.068c-4.021.982-6.665,3.967-8.332,9.438-.208.681-1.016,1.379-.319,2.084.782.791,1.709.2,2.505-.125C275.683,207.65,278.367,202.63,278.278,197.7Zm-12.1,24.43c5.112.2,8.307-2.419,10.151-7.949.219-.658,1.05-1.341.276-2.057-.666-.615-1.485-.17-2.148.112C270.145,214.069,267.98,217.715,266.177,222.125Zm-119.749,28.2c-.923.588-3.691-.4-2.823,2.245.944,2.875,6.907,5.273,9.937,4.709a2.753,2.753,0,0,0,2.026-1.551c.588-1.116-.622-1.514-1.223-2.017A13.816,13.816,0,0,0,146.428,250.328Zm104.869,6.98c2.617.006,6.14-2.008,7.959-4.224,1.231-1.5.458-1.836-.847-2.3-3.379-1.19-6.016.5-8.583,2.226-.964.647-2.747,1.212-2.188,2.713C248.157,257.12,249.814,257.358,251.3,257.309Zm17.324-55.928c3.605-5.567,3.238-11.919-.811-15.337C265.976,191.259,265.8,196.29,268.621,201.38Zm-10.3,45.084c2.691.063,5.832-1.816,7.926-4.831.479-.69,1.527-1.331,1-2.3-.6-1.1-1.853-.74-2.819-.639-3.124.325-5.444,2.189-7.556,4.309-.665.667-1.9,1.336-1.329,2.483C256.039,246.481,257.268,246.474,258.32,246.464ZM157.007,260.832a5.961,5.961,0,0,0-4,1.107c-.791.574-.811,1.073-.169,1.863,1.8,2.215,6.837,3.761,9.573,2.887,1.166-.373,2.384-1,2.629-2.065.344-1.5-1.37-1.44-2.238-2.045A10.314,10.314,0,0,0,157.007,260.832Zm-11.9-14.342c.912-.34,3.046.237,2.408-2.034-.779-2.77-7.44-6.269-10.3-5.813-1.179.188-1.586.539-1.165,1.741C137,243.11,141.931,246.571,145.11,246.49Zm19.055,1.419c-3.335,5.2-2.312,9.58,2.984,12.763C168.716,255.672,167.809,251.79,164.165,247.909Zm-12.086-17.661c-4.483,3.428-4.858,8.648-.9,12.824C154.013,238.923,153.832,234.7,152.078,230.248Zm5.481,9.073c-3.727,4.252-3.344,9.435.885,13.163C161,247.876,159.894,243.65,157.559,239.321Zm106.313-21.512c-.006-2.874-.824-5.342-3.335-6.969-1.611-1.044-2.911-1.325-2.789,1.353a11.309,11.309,0,0,0,2.234,6.813c.782.977,1.674,2.331,3.051,1.865C264.364,220.42,263.578,218.84,263.872,217.809Zm-9.122,18.945a22.574,22.574,0,0,0-.632-3.039c-.466-1.333-1.132-3.162-2.538-3.058-1.584.116-1.409,2.212-1.589,3.455a22.129,22.129,0,0,0,.015,5.772c.159,1.307.845,3.047,2.11,3.167,1.444.137,1.57-1.78,1.988-2.915A19.893,19.893,0,0,0,254.75,236.754Zm5.224-9.015c-.132-2.753-.76-5.173-3.142-6.738-.5-.328-1.268-.724-1.615.091a9.742,9.742,0,0,0-.094,6.755c.036.122.044.254.088.373.616,1.7,1.478,4.118,3.088,3.923C260.13,231.92,259.682,229.308,259.974,227.739Zm-115.522,4.97c3.913-2.7,4.235-6.312,3.959-10.124-.051-.712.118-1.672-.872-1.9a2.146,2.146,0,0,0-2,.923C142.539,224.854,142.772,228.463,144.452,232.71Zm.922-20.091c-.519-.608.675-1.984-.719-2.429-1.035-.33-1.961.441-2.7,1.125-2.358,2.181-2.936,4.967-2.527,8.03.247,1.853,1.128,2.119,2.527.935C144.251,218.336,145.122,215.747,145.374,212.618ZM266.3,206.863a7.659,7.659,0,0,0-4.752-7.3c-1.517-.547-2.6-.516-2.314,1.535.425,3.039,1.6,5.686,4.3,7.377a3.183,3.183,0,0,0,2.1.62C266.85,208.786,266.108,207.591,266.3,206.863Zm-129.48-.047c.072.535-.119,1.8.369,2.171.891.671,1.944-.154,2.8-.7,2.408-1.544,4.685-6.609,3.866-8.367-.374-.8-.953-.647-1.584-.567C139.5,199.7,137.076,202.877,136.817,206.817Zm99.466,54.637c3.177-3.815,5.376-7.252,3.853-11.882-.506-1.538-1.335-2.319-2.448-.425C235.548,252.79,234.175,256.562,236.283,261.454Zm8.739-9.048c3.82-4.093,4.252-7.932,1.363-12.1C242.638,243.786,242.11,248.48,245.022,252.406Z" transform="translate(-124.293 -164.36)"/>
      <path id="Path_2" data-name="Path 2" class="cls-2" d="M182.092,181.463c-1.226-2.535,1.231-4.132,4.2-5.652,17.91-9.156,37.019-12.482,56.9-11.179,14.142.926,27.891,3.93,40.677,10.428,5.84,2.968,5.793,2.946,5.145,9.233A118.776,118.776,0,0,1,268.921,239a130.4,130.4,0,0,1-30.586,32.472c-1.878,1.4-3.13,1.464-5,.039C203.944,249.076,186.617,219.754,182.092,181.463Zm54.266-13.531c-17.181.176-32.593,3.236-47.093,10.349-1.935.95-3.7,1.688-3.354,4.733,3.918,34.793,20.534,62.353,47.444,84.162,1.81,1.467,3.123,1.423,4.947-.051,26.6-21.507,43.108-48.709,47.278-83.007.378-3.11-.629-4.591-3.309-5.905C267.419,170.927,251.63,168.133,236.358,167.931Z" transform="translate(-158.521 -164.36)"/>
      <path id="Path_3" data-name="Path 3" class="cls-2" d="M140.321,291.98c-7,.876-10.513-4.73-10.532-10.3C135.719,282.544,138.036,286.982,140.321,291.98Z" transform="translate(-127.566 -234.224)"/>
      <path id="Path_4" data-name="Path 4" class="cls-2" d="M414.182,402.838c1.367.185,3.492.1,3.911,1.945.332,1.457-1.637,2.094-2.776,2.743-2.637,1.5-5.463,2.337-8.335.574-.693-.426-1.539-.925-1.481-2.054.065-1.255,1.03-1.087,1.806-1.439A15.541,15.541,0,0,1,414.182,402.838Z" transform="translate(-291.754 -306.376)"/>
      <path id="Path_5" data-name="Path 5" class="cls-2" d="M125.242,246.494a6.772,6.772,0,0,1,4.034,2.559,15.331,15.331,0,0,1,3.839,6.536c.216.932,1.308,2.09.176,2.74-.624.358-2-.174-2.826-.66-3.839-2.251-5.6-5.743-6.146-10.117C124.167,246.343,124.75,246.759,125.242,246.494Z" transform="translate(-124.293 -213.272)"/>
      <path id="Path_6" data-name="Path 6" class="cls-2" d="M146.048,216.978c1.927,4.793,2.147,9.139.49,13.525-.253.669-.209,1.7-1.119,1.869-1.27.234-1.35-1.083-1.59-1.747C142.122,225.893,141.721,221.285,146.048,216.978Z" transform="translate(-135.209 -195.695)"/>
      <path id="Path_7" data-name="Path 7" class="cls-2" d="M146.466,324.113c-2.771-.1-9.557-5.811-9.652-8.349-.035-.942.6-1.717,2.042-1.276a17.136,17.136,0,0,1,9.232,7.06c.383.553,1.192,1.188.521,2.012C148.071,324.221,147.226,324.095,146.466,324.113Z" transform="translate(-131.749 -253.687)"/>
      <path id="Path_8" data-name="Path 8" class="cls-2" d="M475.693,316.1c-1.69,4.244-3.85,7.553-8.167,8.836-1.088.323-2.492.551-3.212-.474-.7-1,.5-1.854,1.051-2.579C467.864,318.586,470.629,315.651,475.693,316.1Z" transform="translate(-326.652 -254.695)"/>
      <path id="Path_9" data-name="Path 9" class="cls-2" d="M491.835,246.773c.089,4.935-2.594,9.955-6.146,11.4-.8.323-1.723.916-2.505.125-.7-.705.111-1.4.319-2.084C485.17,250.74,487.814,247.755,491.835,246.773Z" transform="translate(-337.851 -213.438)"/>
      <path id="Path_10" data-name="Path 10" class="cls-2" d="M475.066,291.983c1.8-4.41,3.968-8.056,8.279-9.894.663-.283,1.482-.728,2.148-.112.774.716-.057,1.4-.276,2.057C483.373,289.564,480.178,292.184,475.066,291.983Z" transform="translate(-333.182 -234.218)"/>
      <path id="Path_11" data-name="Path 11" class="cls-2" d="M174.617,376.895a13.817,13.817,0,0,1,7.918,3.387c.6.5,1.811.9,1.223,2.017a2.753,2.753,0,0,1-2.026,1.551c-3.03.563-8.993-1.835-9.937-4.709C170.926,376.5,173.694,377.483,174.617,376.895Z" transform="translate(-152.481 -290.927)"/>
      <path id="Path_12" data-name="Path 12" class="cls-2" d="M432.736,383.967c-1.484.05-3.141-.188-3.659-1.58-.559-1.5,1.225-2.066,2.188-2.713,2.567-1.723,5.2-3.415,8.583-2.226,1.3.46,2.078.8.847,2.3C438.876,381.96,435.353,383.974,432.736,383.967Z" transform="translate(-305.732 -291.02)"/>
      <path id="Path_13" data-name="Path 13" class="cls-2" d="M477.929,233.3c-2.82-5.09-2.645-10.121-.811-15.337C481.167,221.384,481.535,227.736,477.929,233.3Z" transform="translate(-333.602 -196.283)"/>
      <path id="Path_14" data-name="Path 14" class="cls-2" d="M451.342,355.7c-1.054.013-2.283.02-2.776-.971-.57-1.147.664-1.815,1.329-2.483,2.111-2.12,4.432-3.984,7.556-4.309.966-.1,2.221-.464,2.819.639.524.966-.524,1.607-1,2.3C457.174,353.888,454.032,355.767,451.342,355.7Z" transform="translate(-317.314 -273.6)"/>
      <path id="Path_15" data-name="Path 15" class="cls-2" d="M198.365,402.841a10.319,10.319,0,0,1,5.8,1.747c.868.605,2.583.548,2.238,2.045-.245,1.067-1.463,1.693-2.629,2.065-2.736.874-7.771-.672-9.573-2.887-.642-.79-.622-1.289.169-1.863A5.962,5.962,0,0,1,198.365,402.841Z" transform="translate(-165.654 -306.37)"/>
      <path id="Path_16" data-name="Path 16" class="cls-2" d="M162.178,355.793c-3.179.081-8.109-3.38-9.062-6.106-.42-1.2-.014-1.554,1.165-1.741,2.865-.456,9.526,3.043,10.3,5.813C165.224,356.029,163.09,355.453,162.178,355.793Z" transform="translate(-141.361 -273.663)"/>
      <path id="Path_17" data-name="Path 17" class="cls-2" d="M220.04,370.914c3.644,3.881,4.552,7.763,2.984,12.763C217.728,380.494,216.7,376.118,220.04,370.914Z" transform="translate(-180.168 -287.365)"/>
      <path id="Path_18" data-name="Path 18" class="cls-2" d="M187.636,327.252c1.753,4.454,1.935,8.675-.9,12.824C182.778,335.9,183.154,330.68,187.636,327.252Z" transform="translate(-159.851 -261.364)"/>
      <path id="Path_19" data-name="Path 19" class="cls-2" d="M202.767,349.682c2.335,4.329,3.443,8.555.885,13.163C199.423,359.117,199.04,353.934,202.767,349.682Z" transform="translate(-169.501 -274.721)"/>
      <path id="Path_20" data-name="Path 20" class="cls-2" d="M460.339,285.137c-.294,1.031.492,2.611-.839,3.062-1.378.466-2.27-.887-3.051-1.865a11.309,11.309,0,0,1-2.234-6.813c-.122-2.678,1.178-2.4,2.789-1.353C459.515,279.794,460.333,282.262,460.339,285.137Z" transform="translate(-320.76 -231.688)"/>
      <path id="Path_21" data-name="Path 21" class="cls-2" d="M439.541,334.354a19.9,19.9,0,0,1-.646,3.382c-.418,1.135-.544,3.051-1.988,2.915-1.265-.12-1.951-1.86-2.11-3.167a22.129,22.129,0,0,1-.015-5.772c.18-1.243,0-3.338,1.589-3.455,1.406-.1,2.071,1.725,2.538,3.058A22.572,22.572,0,0,1,439.541,334.354Z" transform="translate(-309.084 -261.96)"/>
      <path id="Path_22" data-name="Path 22" class="cls-2" d="M451.765,310.553c-.292,1.569.157,4.181-1.675,4.4-1.611.195-2.472-2.225-3.088-3.923-.043-.119-.051-.251-.088-.373a9.742,9.742,0,0,1,.094-6.755c.347-.815,1.116-.419,1.615-.091C451.005,305.381,451.634,307.8,451.765,310.553Z" transform="translate(-316.085 -247.174)"/>
      <path id="Path_23" data-name="Path 23" class="cls-2" d="M172.325,315.574c-1.68-4.247-1.912-7.855,1.086-11.1a2.146,2.146,0,0,1,2-.923c.99.231.821,1.19.872,1.9C176.56,309.262,176.238,312.874,172.325,315.574Z" transform="translate(-152.167 -247.224)"/>
      <path id="Path_24" data-name="Path 24" class="cls-2" d="M167.477,279.975c-.252,3.129-1.123,5.717-3.42,7.662-1.4,1.184-2.28.918-2.527-.935-.409-3.064.169-5.85,2.527-8.03.74-.684,1.665-1.455,2.7-1.125C168.152,277.991,166.957,279.366,167.477,279.975Z" transform="translate(-146.396 -231.717)"/>
      <path id="Path_25" data-name="Path 25" class="cls-2" d="M464.892,258.25c-.189.728.553,1.923-.659,2.233a3.183,3.183,0,0,1-2.1-.62c-2.708-1.691-3.879-4.339-4.3-7.377-.287-2.051.8-2.082,2.314-1.535A7.659,7.659,0,0,1,464.892,258.25Z" transform="translate(-322.888 -215.746)"/>
      <path id="Path_26" data-name="Path 26" class="cls-2" d="M155.254,258.234c.259-3.94,2.683-7.117,5.448-7.465.631-.079,1.21-.236,1.584.568.819,1.759-1.458,6.823-3.866,8.367-.855.548-1.907,1.373-2.8.7C155.135,260.038,155.326,258.769,155.254,258.234Z" transform="translate(-142.731 -215.777)"/>
      <path id="Path_27" data-name="Path 27" class="cls-2" d="M399.613,384.643c-2.108-4.892-.735-8.665,1.406-12.307,1.113-1.893,1.942-1.113,2.448.425C404.989,377.391,402.79,380.828,399.613,384.643Z" transform="translate(-287.624 -287.549)"/>
      <path id="Path_28" data-name="Path 28" class="cls-2" d="M420.018,364.212c-2.912-3.926-2.384-8.62,1.363-12.1C424.269,356.28,423.837,360.119,420.018,364.212Z" transform="translate(-299.289 -276.166)"/>
      <path id="Path_29" data-name="Path 29" class="cls-1" d="M242.391,173.189c15.272.2,31.062,3,45.912,10.281,2.68,1.315,3.687,2.8,3.309,5.905-4.17,34.3-20.675,61.5-47.278,83.007-1.824,1.474-3.137,1.518-4.947.051-26.91-21.809-43.526-49.369-47.444-84.162-.343-3.045,1.418-3.783,3.354-4.733C209.8,176.425,225.21,173.365,242.391,173.189Zm-.319,95.777c11.928-8.313,20.837-19.4,28.868-31.315.938-1.391-.142-1.738-.847-2.41a51.26,51.26,0,0,0-8.141-5.754c-5.08-3.236-5.016-3.337-7.5,1.686-.751-.114-.528-.761-.611-1.2-.7-3.664.957-8.1-3.522-10.557-.3-.167-.282-1.255-.144-1.852.607-2.613,1.276-5.082,3.248-7.244,2.189-2.4,5.813-4.789,2.505-8.982-.436-.553-.03-1.757-.043-2.659-.045-3.1-.127-6.271-1.419-9.105-.927-2.036-.067-2.439,1.538-2.719a16.2,16.2,0,0,0,3.041-.534c2.433-.939,3.087-.2,3.089,2.35,0,4.217-.3,8.4-.717,12.578-.112,1.132-.172,2.344,1.176,2.316s1.232-1.309,1.158-2.4c-.243-3.542-.307-7.1-.65-10.63-.312-3.208.04-5.78,3.987-6.146.07-.006.1-.4.206-.846-13.086-3.2-25.874-8.986-39.71-3-2.679,1.158-5.714,1.481-8.571,2.242-.889.237-2.033.158-2.535,1.8,3.59.725,7.056,1.51,10.555,2.1,2.107.355,3.352.686,2.144,3.357-1.228,2.715-1.11,5.785-1.092,8.765.007,1.129.61,2.569-.33,3.342-2.451,2.016-.822,3.671.3,5.3a37.054,37.054,0,0,0,3.042,3.467,7.517,7.517,0,0,1,.481,9.885c-3.583,5.139-8.575,8.394-14.022,11.088-4.841,2.394-5.51,4.549-2.433,9.029A126.57,126.57,0,0,0,237.511,265.9c.6.51,1.076,1.607,2.215.913q.531-8.334,1.062-16.668l1.1-.053q-.046.566-.093,1.133c-1.061,4.677-.3,9.42-.447,14.129C241.31,266.517,240.435,268.06,242.072,268.966ZM214.3,180.929a85.192,85.192,0,0,0-16.367,5.791c-1.271.569-2.175,1.157-1.976,2.816a111.078,111.078,0,0,0,13.135,41.249c.478.859.724,1.8,2.213.746,4.179-2.947,8.582-5.576,12.832-8.428,5.424-3.64,5.936-6.881,1.843-11.759a19.919,19.919,0,0,1-3.14-5.709,4.109,4.109,0,0,1,.2-4.088c2.122-2.783,1.063-6.034,1.275-9,.383-5.351-4.782-1.952-6.849-3.7-.361-.3-1-.254-1.454-.481C213,186.872,212.216,184.029,214.3,180.929Zm55.326.275c2.043,2.553,1.206,4.518-.843,5.926-1.921,1.32-2.143,3.014-1.985,5.012.261,3.317.539,6.632.75,9.952.189,2.983-1.7,4.57-4.2,5.219-6.84,1.776-9.755,7.748-6.879,14.033a5.648,5.648,0,0,0,2.988,2.71c4.053,2.17,8.387,3.877,11.712,7.257,1.3,1.324,2.542,1.44,3.635-.54a108.362,108.362,0,0,0,13.04-41.256,2.279,2.279,0,0,0-1.27-2.537A58.655,58.655,0,0,0,269.627,181.2Z" transform="translate(-164.554 -169.618)"/>
      <path id="Path_30" data-name="Path 30" class="cls-2" d="M273.232,258.23q.046-.567.093-1.133c.179-2.029.645-4.1-1.1-5.927v5.98q-.531,8.334-1.062,16.673c-1.139.69-1.614-.407-2.215-.917a126.57,126.57,0,0,1-22.391-24.978c-3.076-4.48-2.407-6.634,2.433-9.029,5.447-2.694,10.439-5.949,14.022-11.088a7.517,7.517,0,0,0-.481-9.885,37.06,37.06,0,0,1-3.042-3.467c-1.117-1.628-2.746-3.283-.3-5.3.94-.773.337-2.213.33-3.342-.018-2.979-.135-6.05,1.092-8.765,1.208-2.672-.037-3-2.144-3.357-3.5-.59-6.965-1.375-10.555-2.1.5-1.639,1.645-1.56,2.535-1.8,2.857-.761,5.892-1.084,8.571-2.242,13.835-5.982,26.623-.2,39.71,3-.1.443-.137.839-.206.846-3.947.366-4.3,2.937-3.987,6.146.343,3.531.406,7.088.65,10.63.075,1.089.176,2.369-1.158,2.4s-1.288-1.184-1.176-2.316c.414-4.18.721-8.362.717-12.578,0-2.549-.656-3.29-3.089-2.35a16.2,16.2,0,0,1-3.041.534c-1.605.28-2.466.683-1.538,2.719,1.291,2.834,1.373,6,1.419,9.105.013.9-.393,2.106.043,2.659,3.308,4.193-.316,6.583-2.505,8.983-1.972,2.162-2.641,4.631-3.248,7.244-.138.6-.161,1.684.144,1.852,4.479,2.458,2.821,6.893,3.522,10.557.083.434-.14,1.081.611,1.2,2.484-5.024,2.42-4.923,7.5-1.686a51.261,51.261,0,0,1,8.141,5.754c.705.671,1.785,1.018.847,2.41-8.032,11.912-16.94,23-28.868,31.315Q273.371,267.1,273.232,258.23Z" transform="translate(-195.992 -176.627)"/>
      <path id="Path_31" data-name="Path 31" class="cls-3" d="M220.234,192.325c-2.085,3.1-1.3,5.943,1.715,7.443.454.226,1.093.176,1.454.481,2.067,1.749,7.231-1.651,6.849,3.7-.212,2.962.847,6.213-1.275,9a4.109,4.109,0,0,0-.2,4.088,19.919,19.919,0,0,0,3.14,5.709c4.093,4.878,3.581,8.119-1.843,11.759-4.249,2.852-8.652,5.48-12.832,8.428-1.488,1.049-1.735.113-2.213-.746a111.078,111.078,0,0,1-13.135-41.249c-.2-1.659.706-2.247,1.976-2.816A85.192,85.192,0,0,1,220.234,192.325Z" transform="translate(-170.487 -181.014)"/>
      <path id="Path_32" data-name="Path 32" class="cls-4" d="M363.066,193.006a58.655,58.655,0,0,1,16.948,5.776,2.279,2.279,0,0,1,1.27,2.537,108.362,108.362,0,0,1-13.04,41.256c-1.093,1.979-2.333,1.864-3.635.54-3.326-3.38-7.659-5.086-11.712-7.257a5.647,5.647,0,0,1-2.988-2.71c-2.876-6.285.038-12.257,6.879-14.033,2.5-.649,4.39-2.236,4.2-5.219-.211-3.32-.489-6.635-.75-9.952-.157-2,.065-3.692,1.985-5.012C364.272,197.524,365.109,195.559,363.066,193.006Z" transform="translate(-257.993 -181.419)"/>
    </g>
    <text id="AMAR_BATCH" data-name="AMAR BATCH" class="cls-5" transform="translate(150.088 291.729)"><tspan x="0" y="0">AMAR BATCH</tspan></text>
  </g>
</svg>
