<svg xmlns="http://www.w3.org/2000/svg" width="24" height="24" viewBox="0 0 24 24">
  <path id="Icon_awesome-book-reader" data-name="Icon awesome-book-reader" d="M16.5,4.5A4.5,4.5,0,1,0,12,9,4.5,4.5,0,0,0,16.5,4.5Zm-5.55,6.8C8.168,9.6,3.664,9.131,1.4,9A1.3,1.3,0,0,0,0,10.272V20.716a1.289,1.289,0,0,0,1.242,1.268c2.047.107,6.187.5,9.049,1.942a.653.653,0,0,0,.96-.556V11.839a.624.624,0,0,0-.3-.537ZM22.6,9c-2.266.128-6.772.6-9.552,2.3a.635.635,0,0,0-.3.545V23.368a.654.654,0,0,0,.963.558c2.861-1.44,7-1.833,9.045-1.941A1.29,1.29,0,0,0,24,20.717V10.272A1.3,1.3,0,0,0,22.6,9Z" fill="#6396fc"/>
</svg>
